# Blender 4.5.0
# www.blender.org
mtllib Chair.mtl
o Cube
v -0.205000 0.450000 0.202500
v -0.205000 0.400000 -0.157500
v 0.205000 0.450000 0.202500
v 0.205000 0.400000 -0.157500
v -0.205000 0.450000 -0.202500
v 0.205000 0.450000 -0.202500
v -0.205000 0.900000 -0.252500
v 0.205000 0.900000 -0.252500
v -0.205000 0.400000 0.247500
v 0.205000 0.400000 0.247500
v 0.225000 0.450000 -0.157500
v 0.225000 0.400000 -0.157500
v 0.225000 0.450000 0.202500
v 0.225000 0.450000 -0.202500
v 0.225000 0.900000 -0.252500
v 0.225000 0.400000 0.247500
v -0.225000 0.400000 -0.157500
v -0.225000 0.450000 0.202500
v -0.225000 0.450000 -0.157500
v -0.225000 0.450000 -0.202500
v -0.225000 0.900000 -0.252500
v -0.225000 0.400000 0.247500
v -0.205000 0.360000 0.202500
v -0.205000 0.400000 0.162500
v -0.205000 0.380000 0.197141
v -0.205000 0.394641 0.182500
v 0.205000 0.400000 0.162500
v 0.205000 0.360000 0.202500
v 0.205000 0.394641 0.182500
v 0.205000 0.380000 0.197141
v -0.205000 0.450000 0.207500
v -0.205000 0.410000 0.247500
v -0.205000 0.444641 0.227500
v -0.205000 0.430000 0.242141
v 0.205000 0.450000 0.207500
v 0.205000 0.410000 0.247500
v 0.205000 0.444641 0.227500
v 0.205000 0.430000 0.242141
v 0.225000 0.360000 0.202500
v 0.225000 0.400000 0.162500
v 0.225000 0.440000 0.202500
v 0.225000 0.400000 0.242500
v 0.225000 0.380000 0.197141
v 0.225000 0.394641 0.182500
v 0.225000 0.450000 0.207500
v 0.225000 0.410000 0.247500
v 0.225000 0.444641 0.227500
v 0.225000 0.430000 0.242141
v -0.225000 0.400000 0.162500
v -0.225000 0.360000 0.202500
v -0.225000 0.400000 0.242500
v -0.225000 0.440000 0.202500
v -0.225000 0.394641 0.182500
v -0.225000 0.380000 0.197141
v -0.225000 0.410000 0.247500
v -0.225000 0.450000 0.207500
v -0.225000 0.430000 0.242141
v -0.225000 0.444641 0.227500
v -0.205000 0.450000 -0.117500
v -0.205000 0.490000 -0.157500
v -0.224950 0.450000 -0.157500
v -0.205000 0.455359 -0.137500
v -0.205000 0.470000 -0.152141
v 0.205000 0.490000 -0.157500
v 0.205000 0.450000 -0.117500
v 0.224950 0.450000 -0.157500
v 0.205000 0.470000 -0.152141
v 0.205000 0.455359 -0.137500
v -0.205000 0.400000 -0.162500
v -0.205000 0.440000 -0.202500
v -0.206250 0.400000 -0.202500
v -0.205000 0.360000 -0.202500
v -0.205000 0.405359 -0.182500
v -0.205000 0.420000 -0.197141
v 0.205000 0.440000 -0.202500
v 0.205000 0.400000 -0.162500
v 0.205000 0.360000 -0.202500
v 0.206250 0.400000 -0.202500
v 0.205000 0.420000 -0.197141
v 0.205000 0.405359 -0.182500
v 0.225000 0.400000 -0.162500
v 0.225000 0.440000 -0.202500
v 0.225000 0.405359 -0.182500
v 0.225000 0.420000 -0.197141
v -0.225000 0.440000 -0.202500
v -0.225000 0.400000 -0.162500
v -0.225000 0.420000 -0.197141
v -0.225000 0.405359 -0.182500
v -0.205000 0.900000 -0.247522
v -0.205000 0.890164 -0.235581
v 0.205000 0.890164 -0.235581
v 0.205000 0.900000 -0.247522
v 0.225000 0.900000 -0.247522
v 0.225000 0.890133 -0.235746
v -0.225000 0.890133 -0.235746
v -0.225000 0.900000 -0.247522
v -0.205000 0.000000 0.287500
v -0.205000 0.009923 0.296260
v 0.205000 0.009923 0.296260
v 0.205000 0.000000 0.287500
v 0.225000 0.009923 0.296260
v 0.225000 0.000000 0.287500
v -0.225000 0.000000 0.287500
v -0.225000 0.009923 0.296260
v -0.205000 0.000000 0.262500
v -0.205000 0.009905 0.251124
v 0.205000 0.000000 0.262500
v 0.205000 0.009905 0.251124
v 0.225000 0.000000 0.262500
v 0.225000 0.009905 0.251124
v -0.225000 0.009905 0.251124
v -0.225000 0.000000 0.262500
v 0.205000 0.009923 -0.206260
v 0.205000 0.000000 -0.217500
v -0.205000 0.000000 -0.217500
v -0.205000 0.009923 -0.206260
v 0.205000 0.000000 -0.242500
v 0.205000 0.009905 -0.251124
v -0.205000 0.009905 -0.251124
v -0.205000 0.000000 -0.242500
vn -0.0000 -0.1104 -0.9939
vn 1.0000 -0.0000 -0.0000
vn -1.0000 -0.0000 -0.0000
vn -0.0000 0.9659 0.2588
vn -0.0000 0.7071 0.7071
vn -0.0000 0.2588 0.9659
vn -0.0000 -0.9659 -0.2588
vn -0.0000 -0.7071 -0.7071
vn -0.0000 -0.2588 -0.9659
vn -0.0000 -1.0000 -0.0000
vn -0.0000 -0.0000 1.0000
vn -0.0000 1.0000 -0.0000
vn -0.4606 0.8574 0.2297
vn -0.6685 0.5259 0.5259
vn -0.4606 0.2297 0.8574
vn 0.4606 0.2297 0.8574
vn 0.6685 0.5259 0.5259
vn 0.4606 0.8574 0.2297
vn -0.9991 -0.0000 0.0416
vn 0.9991 -0.0000 0.0416
vn -0.0000 -0.0000 -1.0000
vn -0.0000 0.7719 0.6358
vn 0.0032 0.7692 0.6390
vn -0.0032 0.7692 0.6390
vn -0.0000 0.1915 0.9815
vn -0.1839 0.1798 0.9664
vn 0.1839 0.1798 0.9664
vn -0.0000 -0.6618 0.7497
vn -0.0000 0.1240 0.9923
vn -0.0000 -0.7542 -0.6567
vn -0.0000 -0.1376 -0.9905
vn -0.0000 -0.7497 0.6618
vn -0.0000 -0.1240 0.9923
vn -0.0000 -0.6567 -0.7542
vn -0.0000 0.1237 -0.9923
vt 0.625000 0.500000
vt 0.625000 0.250000
vt 0.375000 0.750000
vt 0.375000 0.750000
vt 0.375000 0.746830
vt 0.375000 0.725123
vt 0.575000 0.750000
vt 0.375000 0.750000
vt 0.375000 0.023889
vt 0.375000 0.000000
vt 0.375000 0.000000
vt 0.375000 0.000000
vt 0.548397 0.000000
vt 0.625000 0.750000
vt 0.625000 0.750000
vt 0.625000 0.750000
vt 0.610021 0.750000
vt 0.525000 0.750000
vt 0.425000 0.750000
vt 0.425000 0.750000
vt 0.125000 0.722222
vt 0.375000 0.722222
vt 0.375000 0.736111
vt 0.125000 0.736111
vt 0.125000 0.750000
vt 0.875000 0.750000
vt 0.875000 0.750000
vt 0.625000 1.000000
vt 0.525000 1.000000
vt 0.425000 1.000000
vt 0.875000 0.750000
vt 0.875000 0.750000
vt 0.425000 1.000000
vt 0.125000 0.750000
vt 0.125000 0.736111
vt 0.125000 0.500000
vt 0.375000 0.500000
vt 0.375000 1.000000
vt 0.625000 0.000000
vt 0.375000 0.250000
vt 0.425000 0.000000
vt 0.525000 0.000000
vt 0.598205 0.000000
vt 0.875000 0.527778
vt 0.875000 0.513889
vt 0.875000 0.500000
vt 0.875000 0.503721
vt 0.875000 0.500000
vt 0.375000 0.250000
vt 0.404284 0.250000
vt 0.556408 0.250000
vt 0.375000 0.274390
vt 0.575000 0.500000
vt 0.475000 0.500000
vt 0.393948 0.500000
vt 0.375000 0.475610
vt 0.625000 0.527778
vt 0.625000 0.513889
vt 0.875000 0.500000
vt 0.575000 0.500000
vt 0.393509 0.500000
vt 0.393509 0.250000
vt 0.475000 0.250000
vt 0.575000 0.250000
vt 0.625000 0.500000
vt 0.875000 0.500000
vt 0.125000 0.750000
vt 0.375000 1.000000
vt 0.375000 0.500000
s 0
f 6/1/1 5/2/1 7/2/1 8/1/1
f 7/2/1 5/2/1 20/2/1 21/2/1
f 6/1/1 8/1/1 15/1/1 14/1/1
f 39/3/2 43/4/2 44/5/2 40/6/2 41/7/2 42/8/2
f 49/9/3 53/10/3 54/10/3 50/11/3 51/12/3 52/13/3
f 45/14/4 35/15/4 37/16/4 47/17/4
f 47/17/5 37/16/5 38/18/5 48/18/5
f 48/18/6 38/18/6 36/19/6 46/20/6
f 24/21/7 27/22/7 29/23/7 26/24/7
f 26/24/8 29/23/8 30/8/8 25/25/8
f 25/25/9 30/8/9 28/4/9 23/25/9
f 35/15/4 31/26/4 33/27/4 37/16/4
f 37/16/5 33/28/5 34/29/5 38/18/5
f 38/18/6 34/29/6 32/30/6 36/19/6
f 27/22/7 40/6/7 44/5/7 29/23/7
f 29/23/8 44/5/8 43/4/8 30/8/8
f 30/8/9 43/4/9 39/3/9 28/4/9
f 31/26/4 56/31/4 58/32/4 33/27/4
f 33/28/5 58/28/5 57/29/5 34/29/5
f 34/29/6 57/29/6 55/33/6 32/30/6
f 23/25/9 50/25/9 54/34/9 25/25/9
f 25/25/8 54/34/8 53/35/8 26/24/8
f 26/24/7 53/35/7 49/21/7 24/21/7
f 2/36/10 24/21/10 49/21/10 17/36/10
f 2/36/10 4/37/10 27/22/10 24/21/10
f 27/22/10 4/37/10 12/37/10 40/6/10
f 9/38/11 32/30/11 55/33/11 22/38/11
f 10/8/11 36/19/11 32/30/11 9/38/11
f 3/14/12 1/32/12 31/26/12 35/15/12
f 31/26/12 1/32/12 18/32/12 56/31/12
f 3/14/12 35/15/12 45/14/12 13/14/12
f 36/19/11 10/8/11 16/8/11 46/20/11
f 12/37/2 11/1/2 13/14/2 41/7/2 40/6/2
f 42/8/2 41/7/2 13/14/2 45/14/2 47/17/2 48/18/2 46/20/2 16/8/2
f 49/9/3 52/13/3 18/39/3 19/2/3 17/40/3
f 18/39/3 52/13/3 51/12/3 22/10/3 55/41/3 57/42/3 58/43/3 56/39/3
f 59/44/13 62/45/13 61/46/13
f 62/45/14 63/47/14 61/48/14
f 63/47/15 60/48/15 61/48/15
f 64/1/16 67/1/16 66/1/16
f 67/1/17 68/1/17 66/1/17
f 68/1/18 65/1/18 66/1/18
f 69/40/19 73/49/19 74/50/19 70/51/19 71/52/19 72/40/19
f 75/53/20 79/54/20 80/55/20 76/37/20 77/37/20 78/56/20
f 59/44/4 65/57/4 68/58/4 62/45/4
f 62/45/5 68/58/5 67/1/5 63/46/5
f 63/46/6 67/1/6 64/1/6 60/59/6
f 75/53/9 82/60/9 84/54/9 79/54/9
f 79/54/8 84/54/8 83/61/8 80/55/8
f 80/55/7 83/61/7 81/37/7 76/37/7
f 69/40/7 86/40/7 88/62/7 73/49/7
f 73/49/8 88/62/8 87/63/8 74/50/8
f 74/50/9 87/63/9 85/64/9 70/51/9
f 65/57/12 59/44/12 1/32/12 3/14/12
f 1/32/12 59/44/12 61/46/12 19/48/12 18/32/12
f 66/1/12 65/57/12 3/14/12 13/14/12 11/1/12
f 71/52/21 70/51/21 5/2/21 6/1/21 75/53/21 78/56/21
f 69/40/10 2/40/10 17/40/10 86/40/10
f 5/2/21 70/51/21 85/64/21 20/2/21
f 4/37/10 76/37/10 81/37/10 12/37/10
f 75/53/21 6/1/21 14/1/21 82/60/21
f 11/1/2 12/37/2 81/37/2 83/61/2 84/54/2 82/60/2 14/1/2
f 17/40/3 19/2/3 20/2/3 85/64/3 87/63/3 88/62/3 86/40/3
f 90/46/22 91/1/22 92/1/22 89/48/22
f 93/65/23 92/1/23 91/1/23 94/65/23
f 95/46/24 90/46/24 89/48/24 96/66/24
f 60/59/25 64/1/25 91/1/25 90/46/25
f 89/48/12 92/1/12 8/1/12 7/48/12
f 89/48/12 7/48/12 21/48/12 96/66/12
f 61/46/26 60/59/26 90/46/26 95/46/26 19/48/26
f 8/1/12 92/1/12 93/65/12 15/1/12
f 91/1/27 64/1/27 66/1/27 11/1/27 94/65/27
f 11/1/2 14/1/2 15/1/2 93/65/2 94/65/2
f 20/2/3 19/2/3 95/2/3 96/2/3 21/2/3
f 103/67/28 97/67/28 98/67/28 104/25/28
f 100/8/28 102/3/28 101/8/28 99/8/28
f 97/67/28 100/8/28 99/8/28 98/67/28
f 98/68/29 9/38/29 22/38/29 104/38/29
f 10/8/29 9/38/29 98/68/29 99/8/29
f 10/8/29 99/8/29 101/8/29 16/8/29
f 108/4/30 110/4/30 109/8/30 107/3/30
f 106/34/30 108/4/30 107/3/30 105/25/30
f 111/67/30 106/34/30 105/25/30 112/25/30
f 105/25/10 107/3/10 100/8/10 97/67/10
f 23/25/31 106/34/31 111/67/31 50/25/31
f 23/25/31 28/4/31 108/4/31 106/34/31
f 105/25/10 97/67/10 103/67/10 112/25/10
f 100/8/10 107/3/10 109/8/10 102/3/10
f 108/4/31 28/4/31 39/3/31 110/4/31
f 39/3/2 42/8/2 16/8/2 101/8/2 102/3/2 109/8/2 110/4/2
f 22/10/3 51/12/3 50/11/3 111/10/3 112/10/3 103/10/3 104/10/3
f 113/69/32 116/36/32 115/36/32 114/37/32
f 4/37/33 2/36/33 116/36/33 113/69/33
f 117/37/34 120/36/34 119/36/34 118/69/34
f 114/37/10 115/36/10 120/36/10 117/37/10
f 72/40/35 71/52/35 78/56/35 77/37/35 118/69/35 119/49/35
f 77/37/2 76/37/2 4/37/2 113/69/2 114/37/2 117/37/2 118/69/2
f 2/40/3 69/40/3 72/40/3 119/49/3 120/40/3 115/40/3 116/40/3
